<svg viewBox="0 0 64 64" xmlns="http://www.w3.org/2000/svg">
  <rect width="64" height="64" rx="13" fill="#3730A3"/>
  <rect x="7" y="10" width="50" height="36" rx="3.5" fill="none" stroke="white" stroke-width="2.5"/>
  <rect x="13" y="17" width="11" height="7" rx="2" fill="white" opacity=".9"/>
  <rect x="27" y="17" width="11" height="7" rx="2" fill="white" opacity=".4"/>
  <rect x="41" y="17" width="11" height="7" rx="2" fill="white" opacity=".85"/>
  <rect x="13" y="27" width="11" height="7" rx="2" fill="white" opacity=".4"/>
  <rect x="27" y="27" width="11" height="7" rx="2" fill="white"/>
  <rect x="41" y="27" width="11" height="7" rx="2" fill="white" opacity=".4"/>
  <rect x="13" y="37" width="11" height="7" rx="2" fill="white" opacity=".85"/>
  <rect x="27" y="37" width="11" height="7" rx="2" fill="white" opacity=".85"/>
  <rect x="41" y="37" width="11" height="7" rx="2" fill="white" opacity=".4"/>
  <circle cx="32" cy="30" r="2" fill="#34D399"/>
  <rect x="29" y="46" width="6" height="6" rx="1" fill="white" opacity=".5"/>
  <rect x="22" y="52" width="20" height="3.5" rx="1.5" fill="white" opacity=".5"/>
</svg>
